<svg id="visual" viewBox="0 0 900 600" width="900" height="600" xmlns="http://www.w3.org/2000/svg" xmlns:xlink="http://www.w3.org/1999/xlink" version="1.1"><rect x="0" y="0" width="900" height="600" fill="#444"></rect><defs><linearGradient id="grad1_0" x1="33.3%" y1="100%" x2="100%" y2="0%"><stop offset="20%" stop-color="#444444" stop-opacity="1"></stop><stop offset="80%" stop-color="#444444" stop-opacity="1"></stop></linearGradient></defs><defs><linearGradient id="grad2_0" x1="0%" y1="100%" x2="66.7%" y2="0%"><stop offset="20%" stop-color="#444444" stop-opacity="1"></stop><stop offset="80%" stop-color="#444444" stop-opacity="1"></stop></linearGradient></defs><g transform="translate(900, 600)"><path d="M-432.7 0C-435.9 -41.2 -439.2 -82.4 -417.9 -112C-396.6 -141.6 -350.8 -159.5 -328.2 -189.5C-305.6 -219.5 -306.2 -261.4 -283.5 -283.5C-260.9 -305.7 -215 -307.9 -179.5 -310.9C-144 -313.9 -118.8 -317.7 -90.6 -338.1C-62.4 -358.5 -31.2 -395.6 0 -432.7L0 0Z" fill="#e3e1ff"></path></g><g transform="translate(0, 0)"><path d="M432.7 0C409.9 35.7 387.1 71.4 359.3 96.3C331.5 121.1 298.7 135.1 284.9 164.5C271.2 193.9 276.6 238.7 258.8 258.8C241 278.9 200.1 274.3 174.5 302.2C148.9 330.2 138.5 390.8 112 417.9C85.4 445.1 42.7 438.9 0 432.7L0 0Z" fill="#e3e1ff"></path></g></svg>